<svg width="24" height="23" viewBox="0 0 24 23" fill="none" xmlns="http://www.w3.org/2000/svg">
<g clip-path="url(#clip0_504_60)">
<path d="M12.007 22.132L16.423 8.54103H7.59102L12.007 22.132Z" fill="#E24329"/>
<path d="M12.007 22.132L7.59101 8.541H1.40209L12.007 22.132Z" fill="#FC6D26"/>
<path d="M1.40211 8.54103L0.0601697 12.6712C-0.0622303 13.0479 0.0718268 13.4606 0.392284 13.6934L12.007 22.132L1.40211 8.54103Z" fill="#FCA326"/>
<path d="M1.40211 8.54104H7.59102L4.93125 0.355329C4.79445 -0.0659284 4.19857 -0.0658141 4.06177 0.355329L1.40211 8.54104Z" fill="#E24329"/>
<path d="M12.007 22.132L16.423 8.541H22.6119L12.007 22.132Z" fill="#FC6D26"/>
<path d="M22.6119 8.54103L23.9539 12.6712C24.0763 13.0479 23.9422 13.4606 23.6218 13.6934L12.007 22.132L22.6119 8.54103Z" fill="#FCA326"/>
<path d="M22.6119 8.54104H16.423L19.0828 0.355329C19.2196 -0.0659284 19.8155 -0.0658141 19.9523 0.355329L22.6119 8.54104Z" fill="#E24329"/>
</g>
<defs>
<clipPath id="clip0_504_60">
<rect width="24" height="22.125" fill="white"/>
</clipPath>
</defs>
</svg>
